<svg width="26" height="25" viewBox="0 0 26 25" fill="none" xmlns="http://www.w3.org/2000/svg">
<path d="M10.0296 21.6953C9.83719 21.6953 9.64479 21.6245 9.49289 21.4726L4.41947 16.3991C4.1258 16.1055 4.1258 15.6194 4.41947 15.3257C4.71314 15.0321 5.19922 15.0321 5.49289 15.3257L10.5663 20.3991C10.86 20.6928 10.86 21.1789 10.5663 21.4726C10.4144 21.6143 10.222 21.6953 10.0296 21.6953Z" fill="currentColor"/>
<path d="M10.029 21.6961C9.61384 21.6961 9.26953 21.3518 9.26953 20.9366V3.72141C9.26953 3.30622 9.61384 2.96191 10.029 2.96191C10.4442 2.96191 10.7885 3.30622 10.7885 3.72141V20.9366C10.7885 21.3518 10.4442 21.6961 10.029 21.6961Z" fill="currentColor"/>
<path d="M21.1692 9.55472C20.9768 9.55472 20.7844 9.48383 20.6325 9.33193L15.5591 4.25851C15.2654 3.96484 15.2654 3.47877 15.5591 3.1851C15.8528 2.89143 16.3389 2.89143 16.6325 3.1851L21.706 8.25851C21.9996 8.55219 21.9996 9.03826 21.706 9.33193C21.5541 9.48383 21.3617 9.55472 21.1692 9.55472Z" fill="currentColor"/>
<path d="M16.0857 21.6961C15.6705 21.6961 15.3262 21.3518 15.3262 20.9366V3.72141C15.3262 3.30622 15.6705 2.96191 16.0857 2.96191C16.5009 2.96191 16.8452 3.30622 16.8452 3.72141V20.9366C16.8452 21.3518 16.511 21.6961 16.0857 21.6961Z" fill="currentColor"/>
</svg>
