<svg width="13" height="13" viewBox="0 0 13 13" fill="none" xmlns="http://www.w3.org/2000/svg">
<g id="vuesax/outline/arrow-right">
<g id="arrow-right">
<path id="Vector" d="M8.20383 9.42959C8.10883 9.42959 8.01383 9.39459 7.93883 9.31959C7.79383 9.17459 7.79383 8.93459 7.93883 8.78959L10.7088 6.01959L7.93883 3.24959C7.79383 3.10459 7.79383 2.86459 7.93883 2.71959C8.08383 2.57459 8.32383 2.57459 8.46883 2.71959L11.5038 5.75459C11.6488 5.89959 11.6488 6.13959 11.5038 6.28459L8.46883 9.31959C8.39383 9.39459 8.29883 9.42959 8.20383 9.42959Z" fill="#A45FFF"/>
<path id="Vector_2" d="M11.1538 6.39453H2.73877C2.53377 6.39453 2.36377 6.22453 2.36377 6.01953C2.36377 5.81453 2.53377 5.64453 2.73877 5.64453H11.1538C11.3588 5.64453 11.5288 5.81453 11.5288 6.01953C11.5288 6.22453 11.3588 6.39453 11.1538 6.39453Z" fill="#A45FFF"/>
</g>
</g>
</svg>
