<svg width="13" height="13" viewBox="0 0 13 13" fill="none" xmlns="http://www.w3.org/2000/svg">
<path d="M7.61106 9.78164C7.51606 9.78164 7.42105 9.74664 7.34605 9.67164C7.20105 9.52664 7.20105 9.28664 7.34605 9.14164L10.1161 6.37164L7.34605 3.60164C7.20105 3.45664 7.20105 3.21664 7.34605 3.07164C7.49105 2.92664 7.73105 2.92664 7.87605 3.07164L10.9111 6.10664C11.0561 6.25164 11.0561 6.49164 10.9111 6.63664L7.87605 9.67164C7.80105 9.74664 7.70606 9.78164 7.61106 9.78164Z" fill="#F69A2F"/>
<path d="M10.5605 6.74609H2.14551C1.94051 6.74609 1.77051 6.57609 1.77051 6.37109C1.77051 6.16609 1.94051 5.99609 2.14551 5.99609H10.5605C10.7655 5.99609 10.9355 6.16609 10.9355 6.37109C10.9355 6.57609 10.7655 6.74609 10.5605 6.74609Z" fill="#F69A2F"/>
</svg>
