<svg width="19" height="19" viewBox="0 0 19 19" fill="none" xmlns="http://www.w3.org/2000/svg">
<g clip-path="url(#clip0_2811_5680)">
<path d="M16.4668 6.99705C16.2554 6.78387 16.1362 6.49612 16.1351 6.19588V5.18413C16.1342 4.56906 15.8895 3.97943 15.4545 3.54458C15.0195 3.10973 14.4298 2.86517 13.8147 2.86455H12.8045C12.6558 2.86494 12.5084 2.8359 12.3709 2.77911C12.2334 2.72231 12.1085 2.63889 12.0034 2.53363L11.1404 1.66992C10.705 1.2356 10.1151 0.991699 9.50011 0.991699C8.88511 0.991699 8.29521 1.2356 7.85978 1.66992L6.99686 2.53363C6.8918 2.63903 6.76692 2.7226 6.62942 2.77953C6.49192 2.83646 6.34451 2.86562 6.19569 2.86534H5.18474C4.56966 2.86597 3.97995 3.11053 3.54496 3.54537C3.10996 3.98022 2.8652 4.56985 2.86436 5.18492V6.19588C2.86356 6.4958 2.74467 6.78333 2.53344 6.99625L1.66894 7.85996C1.23463 8.29539 0.990723 8.88529 0.990723 9.5003C0.990723 10.1153 1.23463 10.7052 1.66894 11.1406L2.53344 12.0035C2.74487 12.2167 2.864 12.5045 2.86515 12.8047V13.8165C2.86599 14.4315 3.11075 15.0212 3.54575 15.456C3.98074 15.8909 4.57046 16.1354 5.18553 16.136H6.19569C6.34451 16.1358 6.49192 16.1649 6.62942 16.2219C6.76692 16.2788 6.8918 16.3624 6.99686 16.4678L7.85978 17.3315C8.2951 17.766 8.88504 18.01 9.50011 18.01C10.1152 18.01 10.7051 17.766 11.1404 17.3315L12.0034 16.4678C12.1084 16.3624 12.2333 16.2788 12.3708 16.2219C12.5083 16.1649 12.6557 16.1358 12.8045 16.136H13.8155C14.4306 16.1354 15.0203 15.8909 15.4553 15.456C15.8903 15.0212 16.135 14.4315 16.1359 13.8165V12.8047C16.1365 12.5046 16.2558 12.2169 16.4676 12.0043L17.3313 11.1406C17.7656 10.7052 18.0095 10.1153 18.0095 9.5003C18.0095 8.88529 17.7656 8.29539 17.3313 7.85996L16.4668 6.99705Z" fill="#62C56D"/>
<path d="M8.70817 11.6772C8.63019 11.6774 8.55294 11.6621 8.48091 11.6322C8.40889 11.6023 8.34351 11.5584 8.28859 11.5031L6.70526 9.91975C6.60038 9.80719 6.54328 9.65832 6.54599 9.5045C6.5487 9.35068 6.61102 9.20392 6.7198 9.09513C6.82859 8.98634 6.97535 8.92403 7.12917 8.92132C7.283 8.9186 7.43187 8.9757 7.54442 9.08058L8.70817 10.2435L11.4553 7.49725C11.5678 7.39237 11.7167 7.33527 11.8705 7.33798C12.0243 7.3407 12.1711 7.40301 12.2799 7.5118C12.3887 7.62058 12.451 7.76735 12.4537 7.92117C12.4564 8.07499 12.3993 8.22386 12.2944 8.33641L9.12775 11.5031C9.07283 11.5584 9.00746 11.6023 8.93543 11.6322C8.8634 11.6621 8.78616 11.6774 8.70817 11.6772Z" fill="white"/>
</g>
<defs>
<clipPath id="clip0_2811_5680">
<rect width="19" height="19" fill="white"/>
</clipPath>
</defs>
</svg>
