<svg id='closeCircle' width="20" height="20" viewBox="0 0 20 20" fill="none" xmlns="http://www.w3.org/2000/svg">
<g id="vuesax/outline/close-circle">
<g id="vuesax/outline/close-circle_2">
<g id="close-circle">
<g id="Union">
<mask id="path-1-inside-1_2969_8111" fill="white">
<path fill-rule="evenodd" clip-rule="evenodd" d="M7.24242 12.7576C7.367 12.8822 7.52481 12.9404 7.68261 12.9404C7.84042 12.9404 8.00653 12.8822 8.12281 12.7576L10.0331 10.8473L11.9434 12.7576C12.068 12.8822 12.2258 12.9404 12.3836 12.9404C12.5414 12.9404 12.6992 12.8822 12.8238 12.7576C13.0647 12.5168 13.0647 12.1181 12.8238 11.8772L10.9135 9.96694L12.8238 8.05665C13.0647 7.81579 13.0647 7.41712 12.8238 7.17625C12.5829 6.93539 12.1843 6.93539 11.9434 7.17625L10.0331 9.08655L8.12281 7.17625C7.88195 6.93539 7.48328 6.93539 7.24242 7.17625C7.00155 7.41712 7.00155 7.81579 7.24242 8.05665L9.15271 9.96694L7.24242 11.8772C7.00155 12.1181 7.00155 12.5168 7.24242 12.7576Z"/>
</mask>
<path fill-rule="evenodd" clip-rule="evenodd" d="M7.24242 12.7576C7.367 12.8822 7.52481 12.9404 7.68261 12.9404C7.84042 12.9404 8.00653 12.8822 8.12281 12.7576L10.0331 10.8473L11.9434 12.7576C12.068 12.8822 12.2258 12.9404 12.3836 12.9404C12.5414 12.9404 12.6992 12.8822 12.8238 12.7576C13.0647 12.5168 13.0647 12.1181 12.8238 11.8772L10.9135 9.96694L12.8238 8.05665C13.0647 7.81579 13.0647 7.41712 12.8238 7.17625C12.5829 6.93539 12.1843 6.93539 11.9434 7.17625L10.0331 9.08655L8.12281 7.17625C7.88195 6.93539 7.48328 6.93539 7.24242 7.17625C7.00155 7.41712 7.00155 7.81579 7.24242 8.05665L9.15271 9.96694L7.24242 11.8772C7.00155 12.1181 7.00155 12.5168 7.24242 12.7576Z" fill="#A5A9AE"/>
<path d="M7.24242 12.7576L7.34309 12.657H7.34309L7.24242 12.7576ZM8.12281 12.7576L8.02207 12.6569L8.01872 12.6605L8.12281 12.7576ZM10.0331 10.8473L10.1338 10.7467L10.0331 10.646L9.93243 10.7467L10.0331 10.8473ZM11.9434 12.7576L12.0441 12.657H12.0441L11.9434 12.7576ZM12.8238 12.7576L12.7231 12.657H12.7231L12.8238 12.7576ZM12.8238 11.8772L12.9245 11.7766L12.8238 11.8772ZM10.9135 9.96694L10.8128 9.86627L10.7121 9.96694L10.8128 10.0676L10.9135 9.96694ZM12.8238 8.05665L12.9245 8.15733L12.8238 8.05665ZM12.8238 7.17625L12.9245 7.07557L12.8238 7.17625ZM11.9434 7.17625L12.0441 7.27693L11.9434 7.17625ZM10.0331 9.08655L9.93243 9.18723L10.0331 9.28791L10.1338 9.18723L10.0331 9.08655ZM8.12281 7.17625L8.02213 7.27693L8.12281 7.17625ZM7.24242 7.17625L7.14174 7.07557V7.07557L7.24242 7.17625ZM7.24242 8.05665L7.14174 8.15733H7.14174L7.24242 8.05665ZM9.15271 9.96694L9.25339 10.0676L9.35407 9.96694L9.25339 9.86627L9.15271 9.96694ZM7.24242 11.8772L7.14174 11.7766H7.14174L7.24242 11.8772ZM7.68261 12.798C7.56053 12.798 7.43957 12.7534 7.34309 12.657L7.14174 12.8583C7.29443 13.011 7.48908 13.0827 7.68261 13.0827V12.798ZM8.01872 12.6605C7.9337 12.7516 7.80777 12.798 7.68261 12.798V13.0827C7.87307 13.0827 8.07937 13.0129 8.2269 12.8548L8.01872 12.6605ZM9.93243 10.7467L8.02213 12.657L8.22349 12.8583L10.1338 10.948L9.93243 10.7467ZM12.0441 12.657L10.1338 10.7467L9.93243 10.948L11.8427 12.8583L12.0441 12.657ZM12.3836 12.798C12.2615 12.798 12.1406 12.7534 12.0441 12.657L11.8427 12.8583C11.9954 13.011 12.1901 13.0827 12.3836 13.0827V12.798ZM12.7231 12.657C12.6266 12.7534 12.5057 12.798 12.3836 12.798V13.0827C12.5771 13.0827 12.7718 13.011 12.9245 12.8583L12.7231 12.657ZM12.7231 11.9779C12.9084 12.1632 12.9084 12.4717 12.7231 12.657L12.9245 12.8583C13.2209 12.5618 13.2209 12.073 12.9245 11.7766L12.7231 11.9779ZM10.8128 10.0676L12.7231 11.9779L12.9245 11.7766L11.0142 9.86627L10.8128 10.0676ZM12.7231 7.95597L10.8128 9.86627L11.0142 10.0676L12.9245 8.15733L12.7231 7.95597ZM12.7231 7.27693C12.9084 7.46219 12.9084 7.77071 12.7231 7.95597L12.9245 8.15733C13.2209 7.86086 13.2209 7.37204 12.9245 7.07557L12.7231 7.27693ZM12.0441 7.27693C12.2293 7.09167 12.5379 7.09167 12.7231 7.27693L12.9245 7.07557C12.628 6.77911 12.1392 6.77911 11.8427 7.07557L12.0441 7.27693ZM10.1338 9.18723L12.0441 7.27693L11.8427 7.07557L9.93243 8.98587L10.1338 9.18723ZM8.02213 7.27693L9.93243 9.18723L10.1338 8.98587L8.22349 7.07557L8.02213 7.27693ZM7.34309 7.27693C7.52835 7.09167 7.83687 7.09167 8.02213 7.27693L8.22349 7.07557C7.92702 6.77911 7.4382 6.77911 7.14174 7.07557L7.34309 7.27693ZM7.34309 7.95597C7.15783 7.77071 7.15783 7.46219 7.34309 7.27693L7.14174 7.07557C6.84527 7.37204 6.84527 7.86086 7.14174 8.15733L7.34309 7.95597ZM9.25339 9.86627L7.34309 7.95597L7.14174 8.15733L9.05203 10.0676L9.25339 9.86627ZM7.34309 11.9779L9.25339 10.0676L9.05203 9.86627L7.14174 11.7766L7.34309 11.9779ZM7.34309 12.657C7.15784 12.4717 7.15783 12.1632 7.34309 11.9779L7.14174 11.7766C6.84527 12.073 6.84527 12.5618 7.14174 12.8583L7.34309 12.657Z" fill="white" mask="url(#path-1-inside-1_2969_8111)"/>
</g>
</g>
</g>
</g>
</svg>
