<svg width="32" height="32" viewBox="0 0 32 32" fill="none" xmlns="http://www.w3.org/2000/svg">
<path fill-rule="evenodd" clip-rule="evenodd" d="M6.23353 22.857C2.79078 19.4142 3.72107 12.902 8.31143 8.31162C12.9018 3.72126 19.414 2.79097 22.8568 6.23372L25.7658 9.14278C29.2086 12.5855 28.2783 19.0978 23.6879 23.6881C19.0976 28.2785 12.5853 29.2088 9.14259 25.766L6.23353 22.857Z" fill="#D9D9D9"/>
<path fill-rule="evenodd" clip-rule="evenodd" d="M6.23353 22.857C2.79078 19.4142 3.72107 12.902 8.31143 8.31162C12.9018 3.72126 19.414 2.79097 22.8568 6.23372L25.7658 9.14278C29.2086 12.5855 28.2783 19.0978 23.6879 23.6881C19.0976 28.2785 12.5853 29.2088 9.14259 25.766L6.23353 22.857Z" fill="url(#paint0_linear_3414_8876)"/>
<mask id="mask0_3414_8876" style="mask-type:alpha" maskUnits="userSpaceOnUse" x="4" y="4" width="24" height="24">
<path fill-rule="evenodd" clip-rule="evenodd" d="M6.23353 22.8574C2.79078 19.4147 3.72107 12.9025 8.31143 8.31211C12.9018 3.72174 19.414 2.79146 22.8568 6.2342L25.7658 9.14327C29.2086 12.586 28.2783 19.0982 23.6879 23.6886C19.0976 28.279 12.5853 29.2093 9.14259 25.7665L6.23353 22.8574Z" fill="#D9D9D9"/>
</mask>
<g mask="url(#mask0_3414_8876)">
<rect opacity="0.1" x="17.0391" y="0.416992" width="22.9211" height="2.9386" transform="rotate(45 17.0391 0.416992)" fill="#FF4D01"/>
<rect opacity="0.2" x="14.9629" y="2.49512" width="22.9211" height="2.9386" transform="rotate(45 14.9629 2.49512)" fill="#FF4D01"/>
<rect opacity="0.3" x="12.8818" y="4.57275" width="22.9211" height="2.9386" transform="rotate(45 12.8818 4.57275)" fill="#FF4D01"/>
<rect opacity="0.4" x="10.8096" y="6.65137" width="22.9211" height="2.9386" transform="rotate(45 10.8096 6.65137)" fill="#FF4D01"/>
<rect opacity="0.3" x="8.72559" y="8.72852" width="22.9211" height="2.9386" transform="rotate(45 8.72559 8.72852)" fill="#FF4D01"/>
<rect opacity="0.2" x="6.65137" y="10.8066" width="22.9211" height="2.9386" transform="rotate(45 6.65137 10.8066)" fill="#FF4D01"/>
<rect opacity="0.1" x="4.5752" y="12.8848" width="22.9211" height="2.9386" transform="rotate(45 4.5752 12.8848)" fill="#FF4D01"/>
<rect opacity="0.05" x="2.49414" y="14.9629" width="22.9211" height="2.9386" transform="rotate(45 2.49414 14.9629)" fill="#FF4D01"/>
</g>
<path d="M20.7789 20.779C16.1885 25.3694 9.67631 26.2997 6.23353 22.857C2.79074 19.4142 3.72105 12.902 8.31143 8.31162C12.9018 3.72124 19.414 2.79093 22.8568 6.23372C26.2995 9.6765 25.3692 16.1887 20.7789 20.779Z" fill="url(#paint1_linear_3414_8876)"/>
<path fill-rule="evenodd" clip-rule="evenodd" d="M19.6714 8.58891C16.6112 11.6492 12.2698 12.2694 9.97453 9.9742C12.2698 12.2694 11.6495 16.6108 8.58929 19.6711L9.00487 20.0866C12.0651 17.0264 16.4065 16.4062 18.7017 18.7014C16.4065 16.4062 17.0268 12.0647 20.087 9.0045L19.6714 8.58891Z" fill="url(#paint2_linear_3414_8876)"/>
<path fill-rule="evenodd" clip-rule="evenodd" d="M9.97455 9.97418C12.2698 12.2694 16.6112 11.6492 19.6714 8.58891C16.6112 11.6492 15.9909 15.9906 18.2862 18.2858C15.9909 15.9906 11.6495 16.6108 8.58928 19.6711C11.6495 16.6108 12.2698 12.2694 9.97455 9.97418Z" fill="url(#paint3_linear_3414_8876)"/>
<path fill-rule="evenodd" clip-rule="evenodd" d="M12.9512 23.9577C15.377 23.6112 17.9821 22.329 20.1555 20.1557C22.3288 17.9823 23.611 15.3772 23.9575 12.9514C24.304 10.5258 23.7146 8.33828 22.2334 6.85709C20.7522 5.3759 18.5647 4.78644 16.1391 5.13295C13.7132 5.4795 11.1082 6.76164 8.9348 8.93499C6.76145 11.1083 5.47931 13.7134 5.13276 16.1393C4.78625 18.5648 5.37571 20.7524 6.8569 22.2336C8.33809 23.7148 10.5256 24.3042 12.9512 23.9577ZM6.23353 22.857C9.67631 26.2997 16.1885 25.3694 20.7789 20.779C25.3692 16.1887 26.2995 9.6765 22.8568 6.23372C19.414 2.79093 12.9018 3.72124 8.31143 8.31162C3.72105 12.902 2.79074 19.4142 6.23353 22.857Z" fill="url(#paint4_linear_3414_8876)"/>
<path fill-rule="evenodd" clip-rule="evenodd" d="M7.06994 22.4369C5.73805 20.963 5.21808 18.8675 5.54834 16.5557C5.89489 14.1298 7.17703 11.5247 9.35038 9.35139C11.5237 7.17803 14.1288 5.8959 16.5547 5.54935C18.8665 5.21909 20.962 5.73905 22.4359 7.07094C22.3704 6.99841 22.3029 6.92738 22.2334 6.8579C20.7522 5.37671 18.5647 4.78726 16.1391 5.13377C13.7132 5.48032 11.1082 6.76245 8.9348 8.93581C6.76145 11.1092 5.47931 13.7142 5.13276 16.1401C4.78625 18.5657 5.3757 20.7532 6.85689 22.2344C6.92637 22.3039 6.9974 22.3714 7.06994 22.4369Z" fill="url(#paint5_linear_3414_8876)"/>
<defs>
<linearGradient id="paint0_linear_3414_8876" x1="24.3113" y1="7.68825" x2="7.68806" y2="24.3115" gradientUnits="userSpaceOnUse">
<stop stop-color="#FF9C54"/>
<stop offset="0.5" stop-color="#FCFE54"/>
<stop offset="1" stop-color="#FF9C54"/>
</linearGradient>
<linearGradient id="paint1_linear_3414_8876" x1="22.8568" y1="6.23372" x2="6.23353" y2="22.857" gradientUnits="userSpaceOnUse">
<stop stop-color="#FFE454"/>
<stop offset="1" stop-color="#FFC554"/>
</linearGradient>
<linearGradient id="paint2_linear_3414_8876" x1="19.8792" y1="8.79671" x2="8.79708" y2="19.8788" gradientUnits="userSpaceOnUse">
<stop stop-color="#FF9C54"/>
<stop offset="0.499934" stop-color="#FDC83B"/>
<stop offset="0.5" stop-color="#FA8700"/>
<stop offset="1" stop-color="#FF9C54"/>
</linearGradient>
<linearGradient id="paint3_linear_3414_8876" x1="19.6714" y1="8.58891" x2="8.58928" y2="19.6711" gradientUnits="userSpaceOnUse">
<stop stop-color="#FCFF54"/>
<stop offset="1" stop-color="#FFE454"/>
</linearGradient>
<linearGradient id="paint4_linear_3414_8876" x1="22.8568" y1="6.23372" x2="6.23353" y2="22.857" gradientUnits="userSpaceOnUse">
<stop stop-color="#FCFF54"/>
<stop offset="1" stop-color="#FFE454"/>
</linearGradient>
<linearGradient id="paint5_linear_3414_8876" x1="19.5321" y1="4.15663" x2="4.15562" y2="19.5331" gradientUnits="userSpaceOnUse">
<stop stop-color="#FF9C54"/>
<stop offset="0.5" stop-color="#FA8700"/>
<stop offset="1" stop-color="#FF9C54"/>
</linearGradient>
</defs>
</svg>

