<svg width="16" height="16" viewBox="0 0 16 16" fill="none" xmlns="http://www.w3.org/2000/svg">
<g clip-path="url(#clip0_79_1878)">
<path d="M8 16C12.4183 16 16 12.4183 16 8C16 3.58172 12.4183 0 8 0C3.58172 0 0 3.58172 0 8C0 12.4183 3.58172 16 8 16Z" fill="#94EF00"/>
<path fill-rule="evenodd" clip-rule="evenodd" d="M6.58337 11.1697C6.24093 10.9233 6.06971 10.5495 6.06971 10.0484V9.9795H4.96094V10.0484C4.96094 10.7959 5.24074 11.3869 5.80035 11.8212C6.26203 12.1795 6.84878 12.39 7.5606 12.4527V13.5H8.50023V12.4525C9.20484 12.3894 9.77906 12.179 10.2229 11.8212C10.7658 11.3869 11.0372 10.8293 11.0372 10.1486C11.0372 9.4721 10.8305 8.89996 10.4171 8.43223C10.0145 7.96804 9.37556 7.61093 8.50023 7.3609V4.28332C8.83961 4.34177 9.11106 4.46146 9.31458 4.64237C9.61527 4.90547 9.76561 5.25626 9.76561 5.69476V5.76367H10.8744V5.69476C10.8744 5.03075 10.6113 4.46697 10.0851 4.00342C9.67191 3.63321 9.14363 3.40952 8.50023 3.33233V2.5H7.5606V3.31793C6.86713 3.37482 6.30962 3.58244 5.88804 3.94077C5.38691 4.36674 5.13634 4.90338 5.13634 5.55068C5.13634 6.18964 5.32635 6.73462 5.70638 7.18565C6.0773 7.61704 6.69537 7.95891 7.5606 8.21126V11.5125C7.16239 11.464 6.83665 11.3497 6.58337 11.1697ZM8.41253 11.521C8.84378 11.4775 9.18831 11.3563 9.44613 11.1572C9.77605 10.9024 9.94101 10.5662 9.94101 10.1486C9.94101 9.77278 9.78858 9.42616 9.48372 9.10877C9.27523 8.88581 8.91817 8.6779 8.41253 8.48505V11.521ZM7.6483 7.08315V4.25375C7.21463 4.28894 6.88262 4.39968 6.65228 4.58599C6.37248 4.8115 6.23258 5.13307 6.23258 5.55068C6.23258 5.88895 6.37665 6.21052 6.66481 6.51538C6.85863 6.71473 7.18646 6.90399 7.6483 7.08315Z" fill="black"/>
</g>
<defs>
<clipPath id="clip0_79_1878">
<rect width="16" height="16" fill="white"/>
</clipPath>
</defs>
</svg>
