<svg width="21" height="21" viewBox="0 0 21 21" fill="none" xmlns="http://www.w3.org/2000/svg">
<path fill-rule="evenodd" clip-rule="evenodd" d="M4.21736 4C3.54528 4 3 4.55445 3 5.23698V5.96501C3 6.47059 3.19226 6.95679 3.53617 7.32249L7.30508 11.33L7.30674 11.3275C8.03433 12.0724 8.44371 13.0793 8.44371 14.1292V17.6851C8.44371 17.9228 8.69232 18.0744 8.89866 17.9624L11.045 16.7928C11.369 16.6158 11.5712 16.2721 11.5712 15.8988V14.12C11.5712 13.076 11.9748 12.0732 12.6958 11.33L16.4647 7.32249C16.8077 6.95679 17 6.47059 17 5.96501V5.23698C17 4.55445 16.4555 4 15.7835 4H4.21736Z" stroke="black" stroke-width="1.5" stroke-linecap="round" stroke-linejoin="round"/>
<rect x="13.5" y="0.5" width="7" height="7" rx="3.5" fill="#2381CC" stroke="#EFEFF3"/>
</svg>
