<svg width="32" height="31" viewBox="0 0 32 31" fill="none" xmlns="http://www.w3.org/2000/svg">
<path d="M30.9812 23.3055L18.2055 1.70617C17.9914 1.35937 17.6942 1.0735 17.3417 0.875343C16.9892 0.67719 16.5929 0.573242 16.1901 0.573242C15.7873 0.573242 15.391 0.67719 15.0385 0.875343C14.686 1.0735 14.3888 1.35937 14.1747 1.70617L1.39901 23.3055C0.958475 24.036 0.719465 24.8736 0.707052 25.7304C0.69464 26.5871 0.909281 27.4315 1.32846 28.1749C1.78143 28.98 2.4388 29.6467 3.23191 30.1054C4.02502 30.564 4.92476 30.7978 5.83714 30.7823H26.5399C27.4526 30.7977 28.3528 30.5639 29.1464 30.1053C29.94 29.6467 30.598 28.98 31.0517 28.1749C31.4696 27.431 31.6835 26.5869 31.6711 25.7304C31.6587 24.8739 31.4204 24.0365 30.9812 23.3055ZM27.4538 26.2649C27.3615 26.4255 27.2287 26.5581 27.0692 26.6492C26.9097 26.7403 26.7292 26.7865 26.5463 26.7832H18.2408V8.9092L20.726 13.5993L27.4377 25.3165C27.5232 25.4589 27.5695 25.6221 27.5717 25.7889C27.574 25.9557 27.5321 26.1201 27.4506 26.2649H27.4538ZM14.1458 8.90269V26.8027H5.84355C5.6605 26.8068 5.47972 26.7608 5.32009 26.6697C5.16047 26.5785 5.02784 26.4455 4.93604 26.2845C4.85193 26.1405 4.80754 25.9761 4.80754 25.8086C4.80754 25.6412 4.85193 25.4768 4.93604 25.3328L11.6477 13.5993L14.1458 8.90269Z" fill="white"/>
</svg>
