<svg width="14" height="14" viewBox="0 0 14 14" fill="none" xmlns="http://www.w3.org/2000/svg">
<g id="fi_10728311">
<g id="Group">
<g id="Group_2">
<path id="Vector" d="M1.91497 10.23C1.77568 10.23 1.68283 10.1836 1.58997 10.0907C1.40426 9.90498 1.40426 9.62641 1.58997 9.44069L4.37568 6.65498C4.5614 6.46927 4.83997 6.46927 5.02568 6.65498L7.02211 8.65141L11.015 4.65855H9.34354C9.06497 4.65855 8.87925 4.47284 8.87925 4.19427C8.87925 3.91569 9.06497 3.72998 9.34354 3.72998H12.1293C12.4078 3.72998 12.5935 3.91569 12.5935 4.19427V6.97998C12.5935 7.25855 12.4078 7.44427 12.1293 7.44427C11.8507 7.44427 11.665 7.25855 11.665 6.97998V5.30855L7.34711 9.62641C7.1614 9.81212 6.88283 9.81212 6.69711 9.62641L4.70068 7.62998L2.23997 10.0907C2.14711 10.1836 2.05426 10.23 1.91497 10.23Z" fill="#62C56D"/>
</g>
</g>
</g>
</svg>
