<svg width="19" height="18" viewBox="0 0 19 18" fill="none" xmlns="http://www.w3.org/2000/svg">
<path fill-rule="evenodd" clip-rule="evenodd" d="M8.49707 3C5.59758 3 3.24707 5.3505 3.24707 8.25C3.24707 11.1495 5.59758 13.5 8.49707 13.5C11.3966 13.5 13.7471 11.1495 13.7471 8.25C13.7471 5.3505 11.3966 3 8.49707 3ZM1.74707 8.25C1.74707 4.52208 4.76915 1.5 8.49707 1.5C12.225 1.5 15.2471 4.52208 15.2471 8.25C15.2471 11.9779 12.225 15 8.49707 15C4.76915 15 1.74707 11.9779 1.74707 8.25Z" fill="#7E7E7E"/>
<path fill-rule="evenodd" clip-rule="evenodd" d="M12.204 11.957C12.4969 11.6641 12.9718 11.6641 13.2647 11.957L16.5272 15.2195C16.8201 15.5124 16.8201 15.9872 16.5272 16.2801C16.2343 16.573 15.7594 16.573 15.4665 16.2801L12.204 13.0176C11.9112 12.7247 11.9112 12.2499 12.204 11.957Z" fill="#7E7E7E"/>
</svg>
