<svg width="28" height="28" viewBox="0 0 28 28" fill="none" xmlns="http://www.w3.org/2000/svg">
<path d="M12.3909 14.8054C12.7364 15.2677 13.1772 15.6503 13.6835 15.9272C14.1897 16.204 14.7494 16.3686 15.3248 16.4099C15.9002 16.4511 16.4777 16.368 17.0181 16.1662C17.5586 15.9644 18.0493 15.6486 18.4572 15.2402L20.8708 12.8242C21.6035 12.0647 22.009 11.0476 21.9998 9.99176C21.9907 8.93596 21.5676 7.926 20.8218 7.17941C20.0759 6.43282 19.067 6.00933 18.0122 6.00015C16.9575 5.99098 15.9414 6.39685 15.1827 7.13036L13.7989 8.50751M15.6091 13.1946C15.2636 12.7323 14.8228 12.3497 14.3165 12.0728C13.8103 11.796 13.2506 11.6314 12.6752 11.5901C12.0998 11.5489 11.5223 11.632 10.9819 11.8338C10.4414 12.0356 9.95065 12.3514 9.54284 12.7598L7.12922 15.1758C6.39645 15.9353 5.99099 16.9524 6.00015 18.0082C6.00932 19.064 6.43238 20.074 7.17822 20.8206C7.92407 21.5672 8.93301 21.9907 9.98775 21.9998C11.0425 22.009 12.0586 21.6031 12.8173 20.8696L14.1931 19.4925" stroke="#007AFF" stroke-width="1.5" stroke-linecap="round" stroke-linejoin="round"/>
</svg>
