<svg width="23" height="23" viewBox="0 0 23 23" fill="none" xmlns="http://www.w3.org/2000/svg">
<path d="M4.14883 22.667L19.0063 22.667C21.7381 22.667 23.4695 19.7203 22.0952 17.3382L12.9257 1.44529C12.3274 0.407563 10.8278 0.407563 10.2295 1.44529L1.05809 17.3382C-0.314399 19.7165 1.41706 22.667 4.14696 22.667L4.14883 22.667ZM12.9332 6.21134L14.9301 10.0761L19.7486 18.6938C20.0665 19.2453 19.6739 19.9522 19.0082 19.9522L12.935 19.9522L12.935 6.20948L12.9332 6.21134ZM3.41029 18.6956L8.2269 10.0742L10.2239 6.21134L10.2239 19.954L4.15069 19.954C3.48504 19.954 3.09242 19.2472 3.41029 18.6956Z" fill="white"/>
</svg>
