<svg width="45" height="39" viewBox="0 0 45 39" fill="none" xmlns="http://www.w3.org/2000/svg">
<path d="M37.3902 5.17251C24.6433 -5.53649 0.114168 0.936865 0 19.4778C0.0913348 38.0473 24.6547 44.5663 37.413 33.8003C46.5807 26.5905 46.5807 12.3708 37.3902 5.17251ZM8.45988 19.4778C8.26009 11.4118 12.804 4.16783 19.5057 2.10709C19.9159 1.98133 20.3498 1.95343 20.7727 2.02564C21.1956 2.09785 21.5957 2.26815 21.9409 2.5229C22.2861 2.77764 22.5668 3.10973 22.7605 3.49254C22.9542 3.87536 23.0555 4.29823 23.0563 4.72726V12.8503C24.814 12.8503 26.4998 13.5486 27.7427 14.7915C28.9855 16.0344 29.6838 17.7201 29.6838 19.4778C29.6838 21.2355 28.9855 22.9213 27.7427 24.1642C26.4998 25.407 24.814 26.1053 23.0563 26.1053V34.1827C23.0555 34.6117 22.9542 35.0346 22.7605 35.4174C22.5668 35.8002 22.2861 36.1323 21.9409 36.3871C21.5957 36.6418 21.1956 36.8121 20.7727 36.8843C20.3498 36.9566 19.9159 36.9286 19.5057 36.8029C12.8211 34.7421 8.28292 27.5267 8.45988 19.4778Z" fill="#00000A"/>
<path d="M16.3833 19.4778C16.3863 20.3511 16.5613 21.2153 16.8983 22.021C17.2352 22.8267 17.7276 23.5582 18.3473 24.1736C18.9669 24.789 19.7017 25.2764 20.5097 25.6078C21.3177 25.9392 22.1831 26.1083 23.0564 26.1053V12.8503C22.1831 12.8473 21.3177 13.0164 20.5097 13.3478C19.7017 13.6792 18.9669 14.1666 18.3473 14.782C17.7276 15.3974 17.2352 16.1289 16.8983 16.9346C16.5613 17.7403 16.3863 18.6045 16.3833 19.4778Z" fill="url(#paint0_linear_109_201)"/>
<defs>
<linearGradient id="paint0_linear_109_201" x1="23" y1="26" x2="23" y2="13" gradientUnits="userSpaceOnUse">
<stop stop-color="#0098EA"/>
<stop offset="1" stop-color="#0057FF"/>
</linearGradient>
</defs>
</svg>
