<svg width="25" height="24" viewBox="0 0 25 24" fill="none" xmlns="http://www.w3.org/2000/svg">
<g clip-path="url(#clip0_3099_3330)">
<path d="M12.6506 0C6.02321 -5.79388e-07 0.650636 5.37257 0.650635 12C0.650635 18.6274 6.0232 24 12.6506 24C19.278 24 24.6506 18.6274 24.6506 12C24.6506 5.37257 19.278 5.79389e-07 12.6506 0Z" fill="#007AFF"/>
<path d="M9.74768 15.9999H15.9716C17.116 15.9999 17.8413 14.7141 17.2656 13.6746L13.4244 6.73952C13.1737 6.28669 12.5456 6.28669 12.2949 6.73952L8.45293 13.6746C7.87799 14.7124 8.60408 15.9999 9.74768 15.9999ZM13.4275 8.81925L14.2641 10.5057L16.2826 14.2661C16.4157 14.5068 16.2513 14.8152 15.9724 14.8152H13.4283V8.81844L13.4275 8.81925ZM9.4383 14.2669L11.4561 10.5049L12.2926 8.81925V14.8161H9.74845C9.46961 14.8161 9.30514 14.5076 9.4383 14.2669Z" fill="white"/>
</g>
<defs>
<clipPath id="clip0_3099_3330">
<rect width="24" height="24" fill="white" transform="translate(0.650635)"/>
</clipPath>
</defs>
</svg>
