<svg width="60" height="60" viewBox="0 0 15 14" fill="none" xmlns="http://www.w3.org/2000/svg">
<path d="M12.4567 4.83667V3.13474C12.4567 2.75222 12.3048 2.38536 12.0343 2.11488C11.7638 1.84439 11.397 1.69244 11.0144 1.69244H9.34858L8.16588 0.509745C7.89565 0.241113 7.53009 0.090332 7.14906 0.090332C6.76802 0.090332 6.40246 0.241113 6.13223 0.509745L4.98559 1.69244H3.28367C2.90115 1.69244 2.53429 1.84439 2.2638 2.11488C1.99332 2.38536 1.84136 2.75222 1.84136 3.13474V4.83667L0.65867 5.9833C0.390039 6.25354 0.239258 6.61909 0.239258 7.00013C0.239258 7.38117 0.390039 7.74672 0.65867 8.01696L1.84136 9.19965V10.8655C1.84136 11.248 1.99332 11.6149 2.2638 11.8854C2.53429 12.1559 2.90115 12.3078 3.28367 12.3078H4.98559L6.13223 13.4905C6.40246 13.7591 6.76802 13.9099 7.14906 13.9099C7.53009 13.9099 7.89565 13.7591 8.16588 13.4905L9.34858 12.3078H11.0144C11.397 12.3078 11.7638 12.1559 12.0343 11.8854C12.3048 11.6149 12.4567 11.248 12.4567 10.8655V9.19965L13.6394 8.01696C13.9081 7.74672 14.0589 7.38117 14.0589 7.00013C14.0589 6.61909 13.9081 6.25354 13.6394 5.9833L12.4567 4.83667Z" fill="#007AFF"/>
<path d="M6.6126 8.70333L6.6126 8.7032L6.60754 8.70323C6.52579 8.7037 6.44476 8.68803 6.36908 8.65712C6.2934 8.62621 6.22456 8.58066 6.16652 8.52309L6.16587 8.52246L5.05579 7.44121C4.93902 7.32421 4.87344 7.16565 4.87344 7.00034C4.87344 6.83482 4.93919 6.67607 5.05623 6.55903C5.17328 6.44199 5.33202 6.37624 5.49754 6.37624C5.66296 6.37624 5.82161 6.44191 5.93863 6.55881L6.50812 7.13551L6.57898 7.20727L6.65014 7.1358L8.30158 5.47715L8.3016 5.47717L8.30334 5.47534C8.4209 5.35115 8.58298 5.27875 8.75392 5.27407C8.92486 5.26939 9.09067 5.3328 9.21485 5.45037C9.33904 5.56793 9.41144 5.73001 9.41612 5.90095C9.42079 6.07146 9.35771 6.23685 9.24073 6.36093L7.07846 8.52319C7.07843 8.52322 7.07841 8.52325 7.07838 8.52328C7.01744 8.58387 6.94459 8.63115 6.86443 8.66215C6.78424 8.69315 6.69849 8.70718 6.6126 8.70333Z" fill="white" stroke="#007AFF" stroke-width="0.2"/>
</svg>