<svg width="18" height="16" viewBox="0 0 18 16" fill="none" xmlns="http://www.w3.org/2000/svg">
<path d="M0.0502319 1.46593C0.0502319 1.85767 0.381705 2.18914 0.758379 2.18914H3.11636L4.28405 10.1596C4.44979 11.2971 5.05246 11.9902 6.20509 11.9902H14.9741C15.3281 11.9902 15.6521 11.7115 15.6521 11.3122C15.6521 10.9204 15.3281 10.6417 14.9741 10.6417H6.37836C6.01675 10.6417 5.79075 10.3931 5.73801 10.0089L5.61748 9.22541H15.0343C16.187 9.22541 16.7972 8.5248 16.9629 7.37971L17.5279 3.60543C17.543 3.5075 17.558 3.37943 17.558 3.29656C17.558 2.85209 17.2492 2.55075 16.7294 2.55075H4.66072L4.54019 1.73713C4.44225 1.08172 4.17858 0.750244 3.34236 0.750244H0.758379C0.381705 0.750244 0.0502319 1.08172 0.0502319 1.46593ZM5.50447 14.4536C5.50447 15.1844 6.09208 15.772 6.82283 15.772C7.55358 15.772 8.14119 15.1844 8.14119 14.4536C8.14119 13.7229 7.55358 13.1353 6.82283 13.1353C6.09208 13.1353 5.50447 13.7229 5.50447 14.4536ZM12.4579 14.4536C12.4579 15.1844 13.053 15.772 13.7838 15.772C14.5145 15.772 15.0946 15.1844 15.0946 14.4536C15.0946 13.7229 14.5145 13.1353 13.7838 13.1353C13.053 13.1353 12.4579 13.7229 12.4579 14.4536Z" fill="white"/>
</svg>
