<svg width="24" height="24" viewBox="0 0 24 24" fill="none" xmlns="http://www.w3.org/2000/svg">
<g id="vuesax/outline/notification">
<g id="notification">
<path id="Vector" d="M12.2354 20.1239C10.0164 20.1239 7.79732 19.7715 5.69256 19.0668C4.89256 18.7906 4.28304 18.2287 4.01637 17.4953C3.74018 16.762 3.83542 15.9525 4.27351 15.2287L5.36875 13.4096C5.59732 13.0287 5.80685 12.2668 5.80685 11.8191V9.06675C5.80685 5.5239 8.69256 2.63818 12.2354 2.63818C15.7783 2.63818 18.664 5.5239 18.664 9.06675V11.8191C18.664 12.2572 18.8735 13.0287 19.1021 13.4191L20.1878 15.2287C20.5973 15.9144 20.6735 16.7429 20.3973 17.4953C20.1211 18.2477 19.5211 18.8191 18.7687 19.0668C16.6735 19.7715 14.4545 20.1239 12.2354 20.1239ZM12.2354 4.06675C9.48304 4.06675 7.23542 6.30485 7.23542 9.06675V11.8191C7.23542 12.5144 6.9497 13.5429 6.59732 14.1429L5.50208 15.962C5.29256 16.3144 5.23542 16.6858 5.35923 17.0001C5.47351 17.3239 5.75923 17.5715 6.1497 17.7048C10.1307 19.0382 14.3497 19.0382 18.3307 17.7048C18.6735 17.5906 18.9402 17.3334 19.064 16.9906C19.1878 16.6477 19.1592 16.2763 18.9688 15.962L17.8735 14.1429C17.5116 13.5239 17.2354 12.5048 17.2354 11.8096V9.06675C17.2354 6.30485 14.9973 4.06675 12.2354 4.06675Z" fill="#717680"/>
<path id="Vector_2" d="M14.0068 4.32388C13.9402 4.32388 13.8735 4.31436 13.8068 4.29531C13.5307 4.21912 13.264 4.16198 13.0068 4.12388C12.1973 4.01912 11.4164 4.07627 10.683 4.29531C10.4164 4.38103 10.1307 4.29531 9.9497 4.09531C9.76875 3.89531 9.71161 3.6096 9.81637 3.35246C10.2068 2.35246 11.1592 1.69531 12.2449 1.69531C13.3307 1.69531 14.283 2.34293 14.6735 3.35246C14.7688 3.6096 14.7211 3.89531 14.5402 4.09531C14.3973 4.24769 14.1973 4.32388 14.0068 4.32388Z" fill="#717680"/>
<path id="Vector_3" d="M12.235 22.2951C11.2921 22.2951 10.3779 21.9141 9.71119 21.2474C9.04453 20.5808 8.66357 19.6665 8.66357 18.7236H10.0921C10.0921 19.2855 10.3207 19.8379 10.7207 20.2379C11.1207 20.6379 11.6731 20.8665 12.235 20.8665C13.416 20.8665 14.3779 19.9046 14.3779 18.7236H15.8064C15.8064 20.6951 14.2064 22.2951 12.235 22.2951Z" fill="#717680"/>
</g>
</g>
</svg>
