<svg width="13" height="14" viewBox="0 0 13 14" fill="none" xmlns="http://www.w3.org/2000/svg">
<g id="fi_10728311">
<g id="Group">
<g id="Group_2">
<path id="Vector" d="M1.393 3.75C1.25371 3.75 1.16085 3.79643 1.068 3.88929C0.882282 4.075 0.882282 4.35357 1.068 4.53929L3.85371 7.325C4.03943 7.51071 4.318 7.51071 4.50371 7.325L6.50014 5.32857L10.493 9.32143H8.82157C8.543 9.32143 8.35728 9.50714 8.35728 9.78571C8.35728 10.0643 8.543 10.25 8.82157 10.25H11.6073C11.8859 10.25 12.0716 10.0643 12.0716 9.78571V7C12.0716 6.72143 11.8859 6.53571 11.6073 6.53571C11.3287 6.53571 11.143 6.72143 11.143 7V8.67143L6.82514 4.35357C6.63942 4.16786 6.36085 4.16786 6.17514 4.35357L4.17871 6.35L1.718 3.88929C1.62514 3.79643 1.53228 3.75 1.393 3.75Z" fill="#E94646"/>
</g>
</g>
</g>
</svg>
