<svg xmlns="http://www.w3.org/2000/svg" width="19" height="18" viewBox="0 0 19 18" fill="none">
<path fill-rule="evenodd" clip-rule="evenodd" d="M8.49414 3C5.59465 3 3.24414 5.3505 3.24414 8.25C3.24414 11.1495 5.59465 13.5 8.49414 13.5C11.3936 13.5 13.7441 11.1495 13.7441 8.25C13.7441 5.3505 11.3936 3 8.49414 3ZM1.74414 8.25C1.74414 4.52208 4.76622 1.5 8.49414 1.5C12.2221 1.5 15.2441 4.52208 15.2441 8.25C15.2441 11.9779 12.2221 15 8.49414 15C4.76622 15 1.74414 11.9779 1.74414 8.25Z" fill="#717680"/>
<path fill-rule="evenodd" clip-rule="evenodd" d="M12.2011 11.957C12.494 11.6641 12.9689 11.6641 13.2618 11.957L16.5243 15.2195C16.8172 15.5124 16.8172 15.9872 16.5243 16.2801C16.2314 16.573 15.7565 16.573 15.4636 16.2801L12.2011 13.0176C11.9082 12.7247 11.9082 12.2499 12.2011 11.957Z" fill="#717680"/>
</svg>