<svg width="20" height="20" viewBox="0 0 20 20" fill="none" xmlns="http://www.w3.org/2000/svg">
<path d="M13.8123 14.3798L13.9405 14.4423L14.0414 14.3414C14.7169 13.6659 15.569 13.2 16.5 13.2C18.2895 13.2 19.8 14.7105 19.8 16.5C19.8 18.2895 18.2895 19.8 16.5 19.8C14.7105 19.8 13.2 18.2895 13.2 16.5C13.2 16.5006 13.2 16.5005 13.2001 16.4996C13.2006 16.4967 13.2023 16.4847 13.2091 16.4583C13.2146 16.4374 13.2207 16.4166 13.228 16.3916C13.2323 16.377 13.237 16.3608 13.2423 16.3424C13.2678 16.253 13.3 16.13 13.3 16V15.875L13.1877 15.8202L9.08768 13.8202L8.93916 13.7478L8.84 13.88C7.97647 15.0314 6.5349 15.8 5 15.8C2.31046 15.8 0.2 13.6895 0.2 11C0.2 8.31046 2.31046 6.2 5 6.2C6.34349 6.2 7.59356 6.7764 8.45858 7.64142L8.57223 7.75507L8.70768 7.66854L12.3077 5.36854L12.4289 5.29108L12.394 5.15149C12.2929 4.7468 12.2 4.37108 12.2 4C12.2 1.91046 13.9105 0.2 16 0.2C18.0895 0.2 19.8 1.91046 19.8 4C19.8 6.08954 18.0895 7.8 16 7.8C14.9536 7.8 14.1043 7.4215 13.4414 6.75858L13.3278 6.64493L13.1923 6.73146L9.59232 9.03146L9.46097 9.11538L9.51026 9.26325C9.70384 9.84396 9.8 10.4226 9.8 11C9.8 11.3711 9.70714 11.7468 9.60597 12.1515L9.56667 12.3087L9.71232 12.3798L13.8123 14.3798ZM18.2 4C18.2 2.78954 17.2105 1.8 16 1.8C14.7895 1.8 13.8 2.78954 13.8 4C13.8 5.21046 14.7895 6.2 16 6.2C17.2105 6.2 18.2 5.21046 18.2 4ZM1.8 11C1.8 12.8105 3.18954 14.2 5 14.2C6.81046 14.2 8.2 12.8105 8.2 11C8.2 9.18954 6.81046 7.8 5 7.8C3.18954 7.8 1.8 9.18954 1.8 11ZM14.8 16.5C14.8 17.4105 15.5895 18.2 16.5 18.2C17.4105 18.2 18.2 17.4105 18.2 16.5C18.2 15.5895 17.4105 14.8 16.5 14.8C15.5895 14.8 14.8 15.5895 14.8 16.5Z" fill="#999999" stroke="#EFEFF3" stroke-width="0.4"/>
</svg>
