<svg width="74" height="22" viewBox="0 0 74 22" fill="none" xmlns="http://www.w3.org/2000/svg">
<g id="TG20 Logo H Flat Blue+White 2" clip-path="url(#clip0_2566_2862)">
<path id="Vector" d="M24.6616 7.09127V4.05664H36.1933V7.09127H32.2016V17.9286H28.6517V7.09127H24.6616Z" fill="#08090B"/>
<path id="Vector_2" d="M43.3425 10.1798V12.8621H45.7495C45.7405 13.248 45.6532 13.5891 45.4819 13.878C45.3 14.1856 45.0274 14.4223 44.6617 14.5901C44.2963 14.7578 43.8399 14.8399 43.2908 14.8399C42.6685 14.8399 42.1479 14.687 41.7289 14.3794C41.31 14.0719 40.9944 13.6301 40.7822 13.0523C40.57 12.4744 40.4648 11.7791 40.4648 10.9664C40.4648 10.1537 40.5754 9.47707 40.7983 8.90669C41.0212 8.33815 41.3438 7.90198 41.77 7.60002C42.1961 7.29805 42.7113 7.14705 43.3157 7.14705C43.5956 7.14705 43.8542 7.1806 44.0896 7.24585C44.3249 7.31108 44.5316 7.40801 44.7117 7.53664C44.8918 7.66525 45.0416 7.82183 45.1627 8.0045C45.2841 8.18718 45.3714 8.39781 45.4284 8.63827H49.0691C48.9997 7.943 48.8052 7.30364 48.4861 6.72205C48.1671 6.13863 47.7463 5.63534 47.2256 5.20847C46.705 4.78161 46.106 4.45169 45.4303 4.21869C44.7545 3.98569 44.0236 3.87012 43.2373 3.87012C42.3423 3.87012 41.5043 4.02668 40.7234 4.34171C39.9407 4.65486 39.2526 5.119 38.657 5.7304C38.0615 6.3418 37.5961 7.09114 37.261 7.97655C36.9258 8.86195 36.7583 9.87784 36.7583 11.0242C36.7583 12.4875 37.031 13.7494 37.5784 14.81C38.124 15.8707 38.8852 16.689 39.8623 17.2631C40.8374 17.8372 41.9714 18.1242 43.264 18.1242C44.4212 18.1242 45.448 17.8857 46.3448 17.4103C47.2418 16.9331 47.946 16.2472 48.4577 15.3506C48.9694 14.454 49.2261 13.3747 49.2261 12.1091V10.1854H43.3425V10.1798Z" fill="#08090B"/>
<path id="Vector_3" d="M50.9362 17.9303V15.22L55.8854 10.9384C56.2135 10.6532 56.4951 10.3866 56.7305 10.135C56.966 9.88522 57.1478 9.62611 57.2742 9.35957C57.4008 9.093 57.465 8.79662 57.465 8.47229C57.465 8.11625 57.3921 7.81056 57.2476 7.55705C57.1031 7.30356 56.9035 7.1097 56.6486 6.97176C56.3936 6.83382 56.0994 6.76485 55.7678 6.76485C55.4362 6.76485 55.1419 6.83569 54.8906 6.97548C54.6374 7.11529 54.4431 7.32033 54.3041 7.59247C54.165 7.86276 54.0971 8.19269 54.0971 8.58227H50.6758C50.6758 7.60738 50.8845 6.76672 51.3051 6.06211C51.7242 5.35751 52.3161 4.81508 53.081 4.4367C53.8459 4.05643 54.7426 3.86816 55.7695 3.86816C56.7966 3.86816 57.754 4.04525 58.5331 4.39941C59.3122 4.75357 59.9147 5.25127 60.3408 5.89249C60.767 6.5337 60.9791 7.28491 60.9791 8.14795C60.9791 8.68105 60.8739 9.21044 60.6618 9.73609C60.4497 10.2617 60.0699 10.8433 59.5207 11.4808C58.9717 12.1183 58.1926 12.877 57.1816 13.7568L55.9371 14.8398V14.9218H61.1201V17.9284H50.9343L50.9362 17.9303Z" fill="#08090B"/>
<path id="Vector_4" d="M68.1406 18.3086C66.9354 18.3049 65.8942 18.0122 65.017 17.4344C64.1399 16.8565 63.4641 16.0233 62.9899 14.9347C62.5138 13.8461 62.2785 12.5413 62.2838 11.0203C62.2875 9.49366 62.5263 8.19817 63.0006 7.13196C63.473 6.06575 64.1469 5.25491 65.0225 4.69942C65.8979 4.14394 66.9372 3.86621 68.1424 3.86621C69.3478 3.86621 70.3889 4.14581 71.2662 4.70315C72.1433 5.2605 72.819 6.0732 73.2933 7.13756C73.7675 8.20377 74.003 9.4974 73.9993 11.0184C73.9993 12.5488 73.7622 13.8592 73.2861 14.9478C72.8102 16.0364 72.1361 16.8677 71.2607 17.4437C70.3854 18.0197 69.3459 18.3067 68.1406 18.3067V18.3086ZM68.1406 15.246C68.763 15.246 69.2729 14.9068 69.6722 14.2264C70.0717 13.546 70.2695 12.478 70.266 11.0184C70.266 10.0659 70.175 9.28677 69.9931 8.68096C69.8113 8.07516 69.5617 7.62779 69.2408 7.337C68.9217 7.04622 68.5543 6.90084 68.1389 6.90084C67.5167 6.90084 67.0086 7.23076 66.6163 7.89061C66.2223 8.55049 66.0225 9.59246 66.0138 11.0203C66.0101 11.9915 66.0974 12.7892 66.2794 13.4156C66.4613 14.0419 66.7126 14.5023 67.0335 14.8005C67.3563 15.0988 67.7235 15.2479 68.1389 15.2479L68.1406 15.246Z" fill="#08090B"/>
<g id="Group 492">
<path id="Vector_5" d="M10.4384 5.4704C11.8711 5.4704 13.1708 6.06994 14.1182 7.04537L17.7728 3.19819C15.8888 1.24922 13.2966 0.0463867 10.4384 0.0463867C4.7255 0.0463867 0.082203 4.84643 -0.000488281 10.8005H5.18749C5.27019 7.84224 7.58914 5.4704 10.4384 5.4704Z" fill="#007AFF"/>
<path id="Vector_6" d="M10.3109 10.7235L12.9301 15.065C12.9301 15.065 16.1568 14.4486 19.7593 11.7197C14.6432 16.7133 11.3356 16.452 10.3954 16.452C8.96268 16.452 7.66299 15.8525 6.71564 14.8771L3.06104 18.7243C4.94497 20.6713 7.53716 21.8741 10.3954 21.8741C16.1083 21.8741 20.7516 17.0741 20.8344 11.1201V10.7217C20.8344 10.7217 16.2611 11.6313 10.3109 10.7217V10.7235Z" fill="#007AFF"/>
</g>
</g>
<defs>
<clipPath id="clip0_2566_2862">
<rect width="74" height="22" fill="white"/>
</clipPath>
</defs>
</svg>
