<svg width="101" height="100" viewBox="0 0 101 100" fill="none" xmlns="http://www.w3.org/2000/svg">
<path d="M81.75 56.25C81.7543 58.429 81.5661 60.6041 81.1875 62.75C80.3431 62.5864 79.4851 62.5027 78.625 62.5C76.1603 62.5014 73.751 63.231 71.6995 64.5972C69.6481 65.9633 68.0461 67.9051 67.0945 70.1787C66.143 72.4524 65.8845 74.9564 66.3514 77.3765C66.8182 79.7966 67.9897 82.0248 69.7188 83.7812C64.3645 88.7324 57.683 92.0151 50.492 93.2278C43.3009 94.4404 35.9124 93.5303 29.2306 90.6089C22.5488 87.6875 16.8636 82.8814 12.8708 76.779C8.87812 70.6766 6.75106 63.5426 6.75 56.25C6.75 55.5 6.78125 54.7188 6.84375 53.9688C7.30412 60.2363 9.55479 66.2397 13.3281 71.2652C17.1015 76.2907 22.2387 80.1267 28.129 82.3172C34.0193 84.5078 40.4147 84.9605 46.5548 83.6217C52.695 82.283 58.3214 79.2089 62.7652 74.7652C67.2089 70.3214 70.283 64.695 71.6217 58.5548C72.9605 52.4147 72.5078 46.0193 70.3172 40.129C68.1267 34.2387 64.2907 29.1015 59.2652 25.3281C54.2397 21.5548 48.2363 19.3041 41.9688 18.8438C42.7188 18.7813 43.5 18.75 44.25 18.75C49.175 18.7486 54.0519 19.7177 58.6022 21.6018C63.1526 23.4858 67.2871 26.248 70.7695 29.7305C74.252 33.2129 77.0142 37.3474 78.8983 41.8978C80.7823 46.4481 81.7514 51.325 81.75 56.25Z" fill="#EBEBEB"/>
<path d="M69.7188 26.7188L73.4688 22.9688C73.6148 22.8256 73.731 22.655 73.8107 22.4667C73.8903 22.2784 73.9319 22.0762 73.9329 21.8718C73.934 21.6673 73.8944 21.4647 73.8167 21.2756C73.7389 21.0865 73.6244 20.9147 73.4799 20.7701C73.3353 20.6256 73.1635 20.5111 72.9744 20.4333C72.7853 20.3556 72.5827 20.3161 72.3783 20.3171C72.1738 20.3181 71.9716 20.3597 71.7833 20.4394C71.595 20.519 71.4244 20.6352 71.2813 20.7812L67.25 24.7812C62.7326 21.4575 57.5529 19.1447 52.0625 18V12.5C52.0646 12.2942 52.0255 12.0901 51.9477 11.8996C51.8699 11.7092 51.7549 11.5361 51.6094 11.3906C51.4639 11.2451 51.2909 11.1301 51.1004 11.0523C50.9099 10.9745 50.7058 10.9355 50.5 10.9375H48.6563C48.8307 10.4344 48.9255 9.90729 48.9375 9.375C48.9375 8.1318 48.4437 6.93951 47.5646 6.06044C46.6855 5.18136 45.4932 4.6875 44.25 4.6875C43.0068 4.6875 41.8145 5.18136 40.9354 6.06044C40.0564 6.93951 39.5625 8.1318 39.5625 9.375C39.5745 9.90729 39.6694 10.4344 39.8438 10.9375H38C37.7943 10.9355 37.5902 10.9745 37.3997 11.0523C37.2092 11.1301 37.0361 11.2451 36.8906 11.3906C36.7451 11.5361 36.6301 11.7092 36.5523 11.8996C36.4745 12.0901 36.4355 12.2942 36.4375 12.5V18C30.9204 19.0989 25.707 21.3804 21.1563 24.6875L17.2188 20.7812C16.9277 20.496 16.5358 20.3371 16.1282 20.3392C15.7207 20.3413 15.3304 20.5041 15.0423 20.7922C14.7541 21.0804 14.5913 21.4707 14.5892 21.8782C14.5871 22.2858 14.746 22.6777 15.0313 22.9688L18.6875 26.6562C11.7924 32.6055 7.21209 40.7925 5.75001 49.7812C5.71718 49.9823 5.72428 50.1879 5.7709 50.3863C5.81752 50.5846 5.90275 50.7718 6.02173 50.9372C6.1407 51.1026 6.29109 51.243 6.46431 51.3503C6.63752 51.4576 6.83017 51.5297 7.03126 51.5625C7.23235 51.5953 7.43793 51.5882 7.63628 51.5416C7.83462 51.495 8.02184 51.4098 8.18724 51.2908C8.35265 51.1718 8.493 51.0214 8.60028 50.8482C8.70756 50.675 8.77968 50.4823 8.81251 50.2812C10.1883 41.8868 14.5122 34.258 21.0074 28.7651C27.5027 23.2722 35.7436 20.2752 44.25 20.3125C52.8458 20.3561 61.1452 23.4588 67.6615 29.0647C74.1779 34.6706 78.4854 42.4135 79.8125 50.9063C79.8618 51.2777 80.0442 51.6186 80.3258 51.8657C80.6074 52.1128 80.9691 52.2494 81.3438 52.25C81.4181 52.255 81.4926 52.2444 81.5625 52.2187C81.766 52.1955 81.9625 52.131 82.1402 52.0291C82.3178 51.9273 82.4728 51.7903 82.5957 51.6265C82.7186 51.4626 82.8067 51.2755 82.8547 51.0764C82.9028 50.8773 82.9097 50.6706 82.875 50.4688C81.485 41.2287 76.8148 32.7979 69.7188 26.7188ZM44.25 7.8125C44.559 7.8125 44.8611 7.90414 45.1181 8.07583C45.375 8.24752 45.5753 8.49155 45.6936 8.77706C45.8118 9.06257 45.8428 9.37673 45.7825 9.67983C45.7222 9.98292 45.5734 10.2613 45.3549 10.4799C45.1363 10.6984 44.8579 10.8472 44.5548 10.9075C44.2517 10.9678 43.9376 10.9368 43.6521 10.8186C43.3666 10.7003 43.1225 10.5 42.9508 10.2431C42.7792 9.98613 42.6875 9.68403 42.6875 9.375C42.6855 9.16924 42.7245 8.96514 42.8023 8.77465C42.8801 8.58416 42.9951 8.41109 43.1406 8.26559C43.2861 8.12009 43.4592 8.00508 43.6497 7.92728C43.8402 7.84948 44.0443 7.81046 44.25 7.8125ZM48.9375 17.5C45.8264 17.0834 42.6736 17.0834 39.5625 17.5V14.0625H48.9375V17.5Z" fill="#08090B"/>
<path d="M56.2831 90.1228C51.3377 91.8751 46.0687 92.5238 40.846 92.0234C35.6232 91.523 30.5733 89.8856 26.0506 87.2261C21.5279 84.5667 17.642 80.9496 14.6658 76.6287C11.6895 72.3079 9.69501 67.388 8.82221 62.2145C8.75462 61.8057 8.52744 61.4406 8.19063 61.1994C7.85382 60.9581 7.43498 60.8606 7.02624 60.9282C6.6175 60.9957 6.25236 61.2229 6.01113 61.5597C5.7699 61.8965 5.67234 62.3154 5.73993 62.7241C6.6879 68.3496 8.85589 73.6993 12.0917 78.3975C15.3274 83.0958 19.5525 87.0288 24.4702 89.9203C29.3878 92.8117 34.8789 94.5916 40.5577 95.1348C46.2365 95.678 51.9654 94.9715 57.3421 93.0648C57.7322 92.9243 58.0506 92.6347 58.2271 92.2595C58.4037 91.8844 58.424 91.4545 58.2836 91.0643C58.1431 90.6742 57.8535 90.3559 57.4783 90.1793C57.1032 90.0028 56.6733 89.9824 56.2831 90.1228Z" fill="#08090B"/>
<path d="M42.6875 37.5V55.6031L36.8952 61.3953C36.746 61.5395 36.627 61.7119 36.5451 61.9025C36.4632 62.0932 36.4201 62.2982 36.4183 62.5057C36.4165 62.7131 36.456 62.9189 36.5346 63.1109C36.6131 63.3029 36.7292 63.4774 36.8759 63.6241C37.0226 63.7708 37.197 63.8868 37.389 63.9654C37.5811 64.0439 37.7868 64.0835 37.9943 64.0817C38.2018 64.0799 38.4068 64.0368 38.5974 63.9549C38.7881 63.873 38.9605 63.754 39.1046 63.6047L45.3546 57.3547C45.4998 57.2097 45.6149 57.0375 45.6935 56.8479C45.7721 56.6584 45.8125 56.4552 45.8125 56.25V37.5C45.8125 37.0856 45.6479 36.6882 45.3548 36.3951C45.0618 36.1021 44.6644 35.9375 44.25 35.9375C43.8356 35.9375 43.4381 36.1021 43.1451 36.3951C42.8521 36.6882 42.6875 37.0856 42.6875 37.5Z" fill="#08090B"/>
<path d="M75.5 54.6875C71.4826 54.6875 67.5554 55.8788 64.215 58.1108C60.8746 60.3427 58.2711 63.5151 56.7337 67.2267C55.1963 70.9384 54.794 75.0225 55.5778 78.9628C56.3616 82.903 58.2962 86.5224 61.1369 89.3631C63.9777 92.2039 67.597 94.1384 71.5372 94.9222C75.4775 95.706 79.5616 95.3037 83.2733 93.7663C86.9849 92.2289 90.1573 89.6254 92.3892 86.285C94.6212 82.9446 95.8125 79.0174 95.8125 75C95.8021 69.616 93.6587 64.4555 89.8516 60.6484C86.0445 56.8413 80.884 54.6979 75.5 54.6875ZM75.5 85.9375C75.191 85.9375 74.8889 85.8459 74.6319 85.6742C74.375 85.5025 74.1747 85.2585 74.0565 84.9729C73.9382 84.6874 73.9072 84.3733 73.9675 84.0702C74.0278 83.7671 74.1766 83.4887 74.3952 83.2701C74.6137 83.0516 74.8921 82.9028 75.1952 82.8425C75.4983 82.7822 75.8124 82.8132 76.098 82.9314C76.3835 83.0497 76.6275 83.25 76.7992 83.5069C76.9709 83.7639 77.0625 84.066 77.0625 84.375C77.0645 84.5808 77.0255 84.7849 76.9477 84.9753C76.8699 85.1658 76.7549 85.3389 76.6094 85.4844C76.4639 85.6299 76.2908 85.7449 76.1003 85.8227C75.9099 85.9005 75.7058 85.9395 75.5 85.9375ZM77.0625 78.125C77.0625 78.5394 76.8979 78.9368 76.6049 79.2299C76.3118 79.5229 75.9144 79.6875 75.5 79.6875C75.0856 79.6875 74.6882 79.5229 74.3952 79.2299C74.1021 78.9368 73.9375 78.5394 73.9375 78.125V65.625C73.9375 65.2106 74.1021 64.8132 74.3952 64.5201C74.6882 64.2271 75.0856 64.0625 75.5 64.0625C75.9144 64.0625 76.3118 64.2271 76.6049 64.5201C76.8979 64.8132 77.0625 65.2106 77.0625 65.625V78.125Z" fill="#FE4040"/>
<path d="M6.75 57.8125C7.61295 57.8125 8.3125 57.1129 8.3125 56.25C8.3125 55.3871 7.61295 54.6875 6.75 54.6875C5.88706 54.6875 5.1875 55.3871 5.1875 56.25C5.1875 57.1129 5.88706 57.8125 6.75 57.8125Z" fill="#08090B"/>
</svg>
