<svg width="38" height="32" viewBox="0 0 38 32" fill="none" xmlns="http://www.w3.org/2000/svg">
<path d="M31.5105 4.2441C21.0515 -4.54275 0.925158 0.768707 0.831482 15.9818C0.906423 31.2182 21.0609 36.5672 31.5292 27.7335C39.0515 21.8178 39.0515 10.1504 31.5105 4.2441ZM7.77291 15.9818C7.60897 9.36352 11.3373 3.41975 16.8361 1.72889C17.1727 1.6257 17.5287 1.60281 17.8757 1.66206C18.2227 1.7213 18.551 1.86104 18.8342 2.07006C19.1175 2.27909 19.3478 2.55157 19.5068 2.86567C19.6657 3.17977 19.7488 3.52674 19.7494 3.87876V10.5438C21.1917 10.5438 22.5748 11.1168 23.5946 12.1366C24.6144 13.1564 25.1874 14.5395 25.1874 15.9818C25.1874 17.424 24.6144 18.8071 23.5946 19.8269C22.5748 20.8468 21.1917 21.4197 19.7494 21.4197V28.0473C19.7488 28.3993 19.6657 28.7463 19.5068 29.0604C19.3478 29.3745 19.1175 29.647 18.8342 29.856C18.551 30.065 18.2227 30.2047 17.8757 30.264C17.5287 30.3232 17.1727 30.3003 16.8361 30.1972C11.3513 28.5063 7.62771 22.5859 7.77291 15.9818Z" fill="black"/>
<path d="M14.2742 15.9818C14.2766 16.6984 14.4202 17.4074 14.6967 18.0685C14.9732 18.7296 15.3772 19.3298 15.8856 19.8347C16.3941 20.3397 16.997 20.7396 17.66 21.0115C18.3229 21.2835 19.033 21.4222 19.7496 21.4197V10.5439C19.033 10.5414 18.3229 10.6801 17.66 10.952C16.997 11.224 16.3941 11.6239 15.8856 12.1288C15.3772 12.6338 14.9732 13.2339 14.6967 13.895C14.4202 14.5561 14.2766 15.2652 14.2742 15.9818Z" fill="url(#paint0_linear_174_1047)"/>
<defs>
<linearGradient id="paint0_linear_174_1047" x1="19.7032" y1="21.3333" x2="19.7032" y2="10.6667" gradientUnits="userSpaceOnUse">
<stop stop-color="#0098EA"/>
<stop offset="1" stop-color="#0057FF"/>
</linearGradient>
</defs>
</svg>
