<svg width="78" height="78" viewBox="0 0 78 78" fill="none" xmlns="http://www.w3.org/2000/svg">
<g clip-path="url(#clip0_2688_3017)">
<rect width="78" height="78" fill="white"/>
<path d="M39.0784 11C23.6578 11 11.1569 23.536 11.1569 39C11.1569 54.464 23.6578 67 39.0784 67C54.4991 67 67 54.464 67 39C67 23.536 54.4991 11 39.0784 11Z" fill="#007AFF"/>
<path d="M31.5933 48.3335L46.721 48.3335C49.5024 48.3335 51.2653 45.3332 49.866 42.9078L40.5298 26.7259C39.9205 25.6694 38.3937 25.6694 37.7845 26.7259L28.4464 42.9078C27.0489 45.3294 28.8119 48.3335 31.5914 48.3335L31.5933 48.3335ZM40.5374 31.5787L42.5706 35.5137L47.4767 44.288C47.8004 44.8496 47.4006 45.5693 46.7229 45.5693L40.5393 45.5693L40.5393 31.5768L40.5374 31.5787ZM30.8413 44.2899L35.7455 35.5118L37.7788 31.5787L37.7788 45.5712L31.5952 45.5712C30.9175 45.5712 30.5177 44.8515 30.8413 44.2899Z" fill="white"/>
</g>
<defs>
<clipPath id="clip0_2688_3017">
<rect width="78" height="78" rx="7.8" fill="white"/>
</clipPath>
</defs>
</svg>
