<svg width="16" height="16" viewBox="0 0 16 16" fill="none" xmlns="http://www.w3.org/2000/svg">
<g clip-path="url(#clip0_79_2014)">
<path d="M8 16C12.4183 16 16 12.4183 16 8C16 3.58172 12.4183 0 8 0C3.58172 0 0 3.58172 0 8C0 12.4183 3.58172 16 8 16Z" fill="#0088CC"/>
<path fill-rule="evenodd" clip-rule="evenodd" d="M5.21493 4.60693H10.8221C11.0364 4.60693 11.2149 4.64265 11.4292 4.74979C11.6792 4.85693 11.8221 5.03551 11.8935 5.17836C11.8935 5.17836 11.8935 5.21408 11.9292 5.21408C12.0364 5.39265 12.1078 5.60693 12.1078 5.85693C12.1078 6.07122 12.0721 6.2855 11.9292 6.49979L8.3935 12.5712C8.32207 12.7141 8.17921 12.7855 8.00064 12.7855C7.85778 12.7855 7.71493 12.7141 7.60778 12.5712L4.1435 6.49979C4.07207 6.35693 3.92921 6.17836 3.92921 5.89265C3.8935 5.64265 3.96493 5.42836 4.07207 5.21408C4.17921 4.99979 4.35778 4.82122 4.60778 4.74979C4.82207 4.60693 5.07207 4.60693 5.21493 4.60693ZM7.57207 5.46408H5.21493C5.07207 5.46408 5.00064 5.46408 4.96493 5.49979C4.8935 5.5355 4.85778 5.57122 4.82207 5.64265C4.78636 5.67836 4.78635 5.74979 4.78635 5.82122C4.78635 5.85693 4.82207 5.89265 4.8935 6.0355L7.57207 10.6784V5.46408ZM8.42921 5.46408V10.7141L11.1435 6.0355C11.1792 5.96408 11.1792 5.89265 11.1792 5.82122C11.1792 5.74979 11.1792 5.67836 11.1435 5.64265C11.1078 5.60693 11.1078 5.57122 11.0721 5.57122L11.0364 5.53551C10.9649 5.49979 10.8935 5.49979 10.7864 5.49979H8.42921V5.46408Z" fill="white"/>
</g>
<defs>
<clipPath id="clip0_79_2014">
<rect width="16" height="16" fill="white"/>
</clipPath>
</defs>
</svg>
