<svg width="24" height="24" viewBox="0 0 24 24" fill="none" xmlns="http://www.w3.org/2000/svg">
<path d="M15.6771 15.5623C15.5064 15.5623 15.3167 15.5528 15.1364 15.5433C14.7855 15.5244 14.5009 15.2398 14.4724 14.8888C14.2637 12.2422 12.1104 10.0984 9.4733 9.88966C9.12232 9.86121 8.83774 9.57664 8.81877 9.22566C8.80928 9.04543 8.7998 8.86519 8.7998 8.68495C8.7998 4.89056 11.8827 1.80762 15.6771 1.80762C19.4715 1.80762 22.5545 4.89056 22.5545 8.68495C22.5545 12.4793 19.4715 15.5623 15.6771 15.5623ZM10.2227 8.55214C13.0495 9.04541 15.3167 11.3126 15.81 14.1394C18.7601 14.0635 21.1316 11.6541 21.1316 8.68495C21.1316 5.6779 18.6842 3.23051 15.6771 3.23051C12.7175 3.23051 10.2986 5.602 10.2227 8.55214Z" fill="#F0F0F0"/>
<path d="M9.03652 22.2029C5.24212 22.2029 2.15918 19.12 2.15918 15.3256C2.15918 11.5312 5.24212 8.44824 9.03652 8.44824C9.20726 8.44824 9.39699 8.45772 9.57722 8.4672C12.9258 8.73281 15.6388 11.4458 15.8949 14.7754C15.9044 14.9651 15.9139 15.1453 15.9139 15.3256C15.9139 19.12 12.8309 22.2029 9.03652 22.2029ZM9.03652 9.87114C6.02946 9.87114 3.58208 12.3185 3.58208 15.3256C3.58208 18.3326 6.02946 20.78 9.03652 20.78C12.0436 20.78 14.491 18.3326 14.491 15.3256C14.491 15.1738 14.4815 15.022 14.472 14.8797C14.2633 12.2521 12.1195 10.0988 9.47286 9.8901C9.34006 9.88061 9.18829 9.87114 9.03652 9.87114Z" fill="#F0F0F0"/>
<path d="M3.81923 7.58458C3.60105 7.58458 3.39234 7.54663 3.18365 7.46125C2.55758 7.20513 2.15918 6.59803 2.15918 5.92453V3.46766C2.15918 2.55701 2.90857 1.80762 3.81923 1.80762H6.27609C6.9496 1.80762 7.54721 2.20602 7.81282 2.83209C8.06894 3.45817 7.92664 4.16962 7.45234 4.64392L4.99548 7.10078C4.67296 7.41382 4.25558 7.58458 3.81923 7.58458ZM3.81923 3.23051C3.68642 3.23051 3.58208 3.33486 3.58208 3.46766V5.92453C3.58208 6.06682 3.67693 6.12375 3.72436 6.14272C3.78128 6.16169 3.88564 6.19013 3.9805 6.09527L6.43737 3.6384C6.53223 3.54354 6.51324 3.43921 6.48478 3.38229C6.45633 3.32538 6.3994 3.24001 6.2666 3.24001H3.81923V3.23051Z" fill="#F0F0F0"/>
<path d="M20.8938 22.2032H18.4369C17.7634 22.2032 17.1658 21.8049 16.9002 21.1788C16.6441 20.5527 16.7864 19.8412 17.2607 19.367L19.7175 16.9101C20.1918 16.4358 20.9033 16.2935 21.5294 16.5496C22.1554 16.8057 22.5538 17.4128 22.5538 18.0863V20.5432C22.5538 21.4539 21.8044 22.2032 20.8938 22.2032ZM20.8843 17.8492C20.8369 17.8492 20.78 17.8681 20.723 17.9251L18.2662 20.3819C18.1713 20.4768 18.1903 20.5812 18.2187 20.6381C18.2472 20.695 18.3041 20.7804 18.4369 20.7804H20.8938C21.0266 20.7804 21.1309 20.676 21.1309 20.5432V18.0863C21.1309 17.944 21.0361 17.8871 20.9887 17.8681C20.9602 17.8587 20.9222 17.8492 20.8843 17.8492Z" fill="#F0F0F0"/>
</svg>
