<svg fill="none" height="16" viewBox="0 0 18 16" width="18" xmlns="http://www.w3.org/2000/svg">
  <path d="M14.1076 5.83667V4.13474C14.1076 3.75222 13.9557 3.38536 13.6852 3.11488C13.4147 2.84439 13.0478 2.69244 12.6653 2.69244H10.9995L9.81676 1.50974C9.54653 1.24111 9.18097 1.09033 8.79993 1.09033C8.4189 1.09033 8.05334 1.24111 7.78311 1.50974L6.63647 2.69244H4.93455C4.55203 2.69244 4.18517 2.84439 3.91468 3.11488C3.6442 3.38536 3.49224 3.75222 3.49224 4.13474V5.83667L2.30955 6.9833C2.04092 7.25354 1.89014 7.61909 1.89014 8.00013C1.89014 8.38117 2.04092 8.74672 2.30955 9.01696L3.49224 10.1996V11.8655C3.49224 12.248 3.6442 12.6149 3.91468 12.8854C4.18517 13.1559 4.55203 13.3078 4.93455 13.3078H6.63647L7.78311 14.4905C8.05334 14.7591 8.4189 14.9099 8.79993 14.9099C9.18097 14.9099 9.54653 14.7591 9.81676 14.4905L10.9995 13.3078H12.6653C13.0478 13.3078 13.4147 13.1559 13.6852 12.8854C13.9557 12.6149 14.1076 12.248 14.1076 11.8655V10.1996L15.2903 9.01696C15.559 8.74672 15.7097 8.38117 15.7097 8.00013C15.7097 7.61909 15.559 7.25354 15.2903 6.9833L14.1076 5.83667Z" fill="#2F7CF6"/>
  <path d="M8.26348 9.70333L8.26348 9.7032L8.25842 9.70323C8.17667 9.7037 8.09563 9.68803 8.01995 9.65712C7.94427 9.62621 7.87544 9.58066 7.8174 9.52309L7.81675 9.52246L6.70667 8.44121C6.5899 8.32421 6.52432 8.16565 6.52432 8.00034C6.52432 7.83482 6.59007 7.67607 6.70711 7.55903C6.82415 7.44199 6.9829 7.37624 7.14842 7.37624C7.31384 7.37624 7.47249 7.44191 7.58951 7.55881L8.159 8.13551L8.22986 8.20727L8.30102 8.1358L9.95246 6.47715L9.95248 6.47717L9.95421 6.47534C10.0718 6.35115 10.2339 6.27875 10.4048 6.27407C10.5757 6.26939 10.7415 6.3328 10.8657 6.45037C10.9899 6.56793 11.0623 6.73001 11.067 6.90095C11.0717 7.07146 11.0086 7.23685 10.8916 7.36093L8.72934 9.52319C8.72931 9.52322 8.72928 9.52325 8.72926 9.52328C8.66832 9.58387 8.59547 9.63115 8.51531 9.66215C8.43512 9.69315 8.34937 9.70718 8.26348 9.70333Z" fill="white" stroke="#2F7CF6" stroke-width="0.2"/>
</svg>